<?xml version="1.0" encoding="iso-8859-1"?>
<!-- Uploaded to: SVG Repo, www.svgrepo.com, Generator: SVG Repo Mixer Tools -->
<svg version="1.1" id="Layer_1" xmlns="http://www.w3.org/2000/svg" xmlns:xlink="http://www.w3.org/1999/xlink" 
	 viewBox="0 0 512 512" xml:space="preserve">
<rect x="69.818" y="23.273" style="fill:#89D2E8;" width="372.364" height="93.091"/>
<rect x="69.818" y="116.364" style="fill:#D5F4FA;" width="372.364" height="372.364"/>
<rect x="256" y="23.273" style="fill:#7AC0DE;" width="186.182" height="93.091"/>
<rect x="256" y="116.364" style="fill:#C0FCFF;" width="186.182" height="372.364"/>
<path style="fill:#DA3981;" d="M442.182,0H69.818C56.965,0,46.545,10.42,46.545,23.273v465.455c0,12.853,10.42,23.273,23.273,23.273
	h372.364c12.853,0,23.273-10.42,23.273-23.273V23.273C465.455,10.42,455.035,0,442.182,0z M232.727,139.636v46.545h-46.545v-46.545
	H232.727z M325.818,139.636v46.545h-46.545v-46.545H325.818z M418.909,139.636v46.545h-46.545v-46.545H418.909z M186.182,232.727
	h46.545v46.545h-46.545V232.727z M139.636,279.273H93.091v-46.545h46.545V279.273z M139.636,186.182H93.091v-46.545h46.545V186.182z
	 M93.091,325.818h46.545v46.545H93.091V325.818z M186.182,325.818h46.545v46.545h-46.545V325.818z M232.727,418.909v46.545h-46.545
	v-46.545H232.727z M279.273,418.909h46.545v46.545h-46.545V418.909z M325.818,372.364h-46.545v-46.545h46.545V372.364z
	 M279.273,279.273v-46.545h46.545v46.545H279.273z M372.364,232.727h46.545v46.545h-46.545V232.727z M418.909,46.545v46.545H93.091
	V46.545H418.909z M93.091,418.909h46.545v46.545H93.091V418.909z M372.364,465.455V325.818h46.545v139.636H372.364z"/>
<path style="fill:#A91E62;" d="M442.182,0H256v46.545h162.909v46.545H256V512h186.182c12.853,0,23.273-10.42,23.273-23.273V23.273
	C465.455,10.42,455.035,0,442.182,0z M325.818,465.455h-46.545v-46.545h46.545V465.455z M325.818,372.364h-46.545v-46.545h46.545
	V372.364z M325.818,279.273h-46.545v-46.545h46.545V279.273z M325.818,186.182h-46.545v-46.545h46.545V186.182z M418.909,465.455
	h-46.545V325.818h46.545V465.455z M418.909,279.273h-46.545v-46.545h46.545V279.273z M418.909,186.182h-46.545v-46.545h46.545
	V186.182z"/>
</svg>